:version 1.10
:name ASF
:units
  mass 1
  length 1
  angle deg
:documentation
  ASF file generated by Kaydara
:root
  axis xyz
  order  tx ty tz rx ry rz
  position 0 0 0
  orientation 0 0 0
:bonedata
  begin
    id 1
    name RightUpLegDummy
    direction -1 2.30186e-007 8.31532e-007
    length 4.04083
    axis 0 0 0 xyz
  end
  begin
    id 2
    name RightUpLeg
    direction -0.000919234 -0.999985 0.00544864
    length 17.4221
    axis -3.80308 -0.00076134 -0.0523649 xyz
    dof rx ry rz
  end
  begin
    id 3
    name RightLeg
    direction -0.000919271 -0.999984 -0.00555045
    length 17.1239
    axis 4.00314 0.0181274 -0.183583 xyz
    dof rx ry rz
  end
  begin
    id 4
    name RightFoot
    direction -2.57843e-005 -4.04509e-007 1
    length 6.72091
    axis 8.18909e-005 -0.122003 -0.403008 xyz
    dof rx ry rz
  end
  begin
    id 5
    name RightToes
    direction 0.00116825 -0.014069 0.9999
    length 3.85082
    axis 0.000514414 0.540638 -0.356797 xyz
    dof rx ry rz
  end
  begin
    id 6
    name SpineDummy
    direction 0.0168869 0.966876 -0.254689
    length 6.99894
    axis 0 0 0 xyz
  end
  begin
    id 7
    name Spine
    direction -0.0132008 0.999903 0.00446247
    length 11.1999
    axis -0.00148109 0.00725429 0.756411 xyz
    dof rx ry rz
  end
  begin
    id 8
    name Spine1
    direction 0 0 0
    length 0
    axis -0.000934958 0.0245693 1.46543 xyz
    dof rx ry rz
  end
  begin
    id 9
    name HEadDummy
    direction -0.0255732 0.999672 0.00128215
    length 3.43865
    axis -0.000934958 0.0245693 1.46543 xyz
  end
  begin
    id 10
    name HEad
    direction -0.0472656 0.980052 0.19304
    length 5.12695
    axis -0.000934954 0.0245693 1.46543 xyz
    dof rx ry rz
  end
  begin
    id 11
    name LeftShoulder1Dummy
    direction 0.953098 0.301717 -0.023914
    length 3.68488
    axis -0.000934958 0.0245693 1.46543 xyz
  end
  begin
    id 12
    name LeftShoulder1
    direction 0.962466 0.271167 0.0112566
    length 3.13809
    axis -0.000934958 0.0245693 1.46543 xyz
    dof rx ry rz
  end
  begin
    id 13
    name LeftArm
    direction 0.999943 0.00455037 -0.00961766
    length 11.3419
    axis -23.1648 0.685459 1.22814 xyz
    dof rx ry rz
  end
  begin
    id 14
    name LeftForeArm
    direction 0.999332 0.0131969 0.0340885
    length 8.70632
    axis -9.90633 0.618216 0.0826942 xyz
    dof rx ry rz
  end
  begin
    id 15
    name LeftHand
    direction 0.994373 -0.0366703 0.0993905
    length 5.32135
    axis 0.00675269 0.680415 0.445699 xyz
    dof rx ry rz
  end
  begin
    id 16
    name RightShoulderDummy
    direction -0.967298 0.252589 -0.0230903
    length 3.68488
    axis -0.000934958 0.0245693 1.46543 xyz
  end
  begin
    id 17
    name RightShoulder
    direction -0.975062 0.221602 0.0120823
    length 3.13809
    axis 0.216257 0.0246515 1.45863 xyz
    dof rx ry rz
  end
  begin
    id 18
    name RightArm
    direction -0.99886 -0.00851186 -0.0469687
    length 10.3947
    axis -23.196 0.23503 -0.532632 xyz
    dof rx ry rz
  end
  begin
    id 19
    name RightForeArm
    direction -0.99909 0.00114866 0.0426317
    length 8.68355
    axis -9.91764 -0.134943 0.610517 xyz
    dof rx ry rz
  end
  begin
    id 20
    name RightHand
    direction -0.992888 -0.0489538 0.10852
    length 5.28593
    axis -0.00275396 -0.197403 0.246414 xyz
    dof rx ry rz
  end
  begin
    id 21
    name LeftUpLegDummy
    direction 1 -2.30186e-007 -8.31532e-007
    length 4.04083
    axis 0 0 0 xyz
  end
  begin
    id 22
    name LeftUpLeg
    direction -0.000920097 -1 2.79241e-006
    length 17.4221
    axis -3.48782 0.00143434 -0.0532288 xyz
    dof rx ry rz
  end
  begin
    id 23
    name LeftLeg
    direction -0.000920097 -1 2.7912e-006
    length 17.1239
    axis 3.68162 -0.00806512 -0.0529896 xyz
    dof rx ry rz
  end
  begin
    id 24
    name LeftFoot
    direction -2.57845e-005 -3.987e-007 1
    length 6.72091
    axis 3.02372e-005 -0.00147829 -0.214229 xyz
    dof rx ry rz
  end
  begin
    id 25
    name LeftToes
    direction 0.00813577 -0.00488255 0.999955
    length 3.85048
    axis 3.89895e-005 -0.0014783 -0.214229 xyz
    dof rx ry rz
  end
:hierarchy
  begin
    root RightUpLegDummy SpineDummy LeftUpLegDummy
    RightUpLegDummy RightUpLeg
    RightUpLeg RightLeg
    RightLeg RightFoot
    RightFoot RightToes
    SpineDummy Spine
    Spine Spine1
    Spine1 HEadDummy LeftShoulder1Dummy RightShoulderDummy
    HEadDummy HEad
    LeftShoulder1Dummy LeftShoulder1
    LeftShoulder1 LeftArm
    LeftArm LeftForeArm
    LeftForeArm LeftHand
    RightShoulderDummy RightShoulder
    RightShoulder RightArm
    RightArm RightForeArm
    RightForeArm RightHand
    LeftUpLegDummy LeftUpLeg
    LeftUpLeg LeftLeg
    LeftLeg LeftFoot
    LeftFoot LeftToes
  end

:SAMPLES-PER-SECOND 30
:FULLY-SPECIFIED
:DEGREES
63
root  -12.0926 34.6051 -18.2405 -170.157 1.12672 179.79
RightUpLeg  -8.11115 -13.6148 0.0341935
RightLeg  6.10775 -1.37774 -0.0556211
RightFoot  2.28753 0.011646 0.0867028
RightToes  -22.1208 -0.0846192 -0.190158
Spine  -3.14178 -0.041435 0.112108
Spine1  -6.36704 0.00927376 0.800314
HEad  -65.8151 0.688329 6.21215
LeftShoulder1  -1.94126e-019 -3.10601e-018 -2.51263e-017
LeftArm  -13.1974 26.6484 -81.8485
LeftForeArm  32.1414 -15.2051 -2.43526
LeftHand  -0.362951 -1.01356 6.71495
RightShoulder  -4.96962e-017 0 -2.36833e-017
RightArm  -27.5507 -24.7267 75.8214
RightForeArm  56.868 13.794 1.27606
RightHand  -0.341379 -1.1514 -9.2553
LeftUpLeg  -8.07185 2.94896 0.971032
LeftLeg  5.83947 13.5509 0.504982
LeftFoot  3.76832 -0.024063 1.03133
LeftToes  -18.0929 1.48347e-006 1.01831e-007
64
root  -12.0924 34.6068 -18.2402 -170.148 1.13121 179.796
RightUpLeg  -8.11115 -13.6146 0.043286
RightLeg  6.0853 -1.37494 -0.0565
RightFoot  2.30823 0.0116825 0.0861804
RightToes  -22.1243 -0.0841146 -0.189656
Spine  -3.14139 -0.0333063 0.100823
Spine1  -6.36582 0.0241308 0.777141
HEad  -65.7349 0.575511 6.23801
LeftShoulder1  -1.94126e-019 -3.10601e-018 -2.51263e-017
LeftArm  -13.2373 26.6244 -81.913
LeftForeArm  32.0506 -15.1322 -2.42481
LeftHand  -0.375385 -0.771634 7.19281
RightShoulder  -4.96962e-017 0 -2.36833e-017
RightArm  -27.4511 -24.7503 75.7427
RightForeArm  56.7991 13.8462 1.26965
RightHand  -0.342397 -1.12184 -9.22016
LeftUpLeg  -8.07244 2.98926 0.978192
LeftLeg  5.81908 13.5088 0.498671
LeftFoot  3.78516 -0.0241291 1.03236
LeftToes  -18.1014 1.48347e-006 1.01831e-007
65
root  -12.0933 34.6078 -18.2408 -170.139 1.14085 179.802
RightUpLeg  -8.11476 -13.6072 0.0495407
RightLeg  6.07067 -1.38896 -0.0567323
RightFoot  2.30695 0.0117521 0.0851857
RightToes  -22.0807 -0.0836207 -0.189161
Spine  -3.13983 -0.0230022 0.0944609
Spine1  -6.36263 0.0437967 0.763071
HEad  -65.6792 0.511178 6.25786
LeftShoulder1  -1.94126e-019 -3.10601e-018 -2.51263e-017
LeftArm  -13.2379 26.5982 -81.8207
LeftForeArm  32.1317 -15.1213 -2.42397
LeftHand  -0.363268 -0.969081 6.76396
RightShoulder  -4.96962e-017 0 -2.36833e-017
RightArm  -27.3449 -24.7678 75.6557
RightForeArm  56.7684 13.893 1.26355
RightHand  -0.342501 -1.13432 -9.2158
LeftUpLeg  -8.06921 3.0227 0.981171
LeftLeg  5.79804 13.4841 0.492867
LeftFoot  3.79402 -0.0241064 1.03201
LeftToes  -18.1309 1.48347e-006 1.01831e-007
66
root  -12.0946 34.6084 -18.2418 -170.131 1.12943 179.802
RightUpLeg  -8.11593 -13.5493 0.0475139
RightLeg  6.07383 -1.44477 -0.0591329
RightFoot  2.28992 0.0118641 0.0835851
RightToes  -22.0906 -0.0831392 -0.188674
Spine  -3.13559 -0.00994102 0.0931302
Spine1  -6.35376 0.0688487 0.757214
HEad  -65.572 0.472811 6.19994
LeftShoulder1  -1.94126e-019 -3.10601e-018 -2.51263e-017
LeftArm  -13.2439 26.5826 -81.8811
LeftForeArm  32.0498 -15.1126 -2.4233
LeftHand  -0.375082 -0.790526 7.16672
RightShoulder  -4.96962e-017 0 -2.36833e-017
RightArm  -27.2352 -24.7534 75.4282
RightForeArm  56.7494 13.891 1.26618
RightHand  -0.341814 -1.08559 -9.24307
LeftUpLeg  -8.0652 3.03024 0.981146
LeftLeg  5.7755 13.4668 0.486994
LeftFoot  3.79563 -0.0240534 1.03118
LeftToes  -18.1102 1.48347e-006 1.01831e-007
67
root  -12.0956 34.6089 -18.2434 -170.128 1.10555 179.799
RightUpLeg  -8.13601 -13.4871 0.04266
RightLeg  6.12316 -1.52924 -0.0639664
RightFoot  2.25929 0.0119905 0.0817792
RightToes  -22.1071 -0.0826721 -0.188198
Spine  -3.12711 -0.000926228 0.0974341
Spine1  -6.33655 0.0863329 0.762306
HEad  -65.4909 0.473028 6.14618
LeftShoulder1  -1.94126e-019 -3.10601e-018 -2.51263e-017
LeftArm  -13.2368 26.557 -81.8922
LeftForeArm  32.0781 -15.1119 -2.42428
LeftHand  -0.376689 -0.84124 7.14271
RightShoulder  -4.96962e-017 0 -2.36833e-017
RightArm  -27.1438 -24.7416 75.2004
RightForeArm  56.6853 13.9128 1.26127
RightHand  -0.341791 -1.09766 -9.24325
LeftUpLeg  -8.06251 2.9988 0.980095
LeftLeg  5.76195 13.4746 0.484112
LeftFoot  3.79627 -0.0240543 1.0312
LeftToes  -18.0929 1.48347e-006 1.01831e-007
68
root  -12.0955 34.6092 -18.2481 -170.125 1.05617 179.794
RightUpLeg  -8.14871 -13.4404 0.0350859
RightLeg  6.17682 -1.61491 -0.0691192
RightFoot  2.2195 0.0121032 0.0801687
RightToes  -22.1107 -0.0822213 -0.187733
Spine  -3.11694 0.00416839 0.104147
Spine1  -6.31555 0.095699 0.772458
HEad  -65.4112 0.491927 6.10321
LeftShoulder1  -1.94126e-019 -3.10601e-018 -2.51263e-017
LeftArm  -13.2221 26.5518 -81.9061
LeftForeArm  32.0832 -15.1962 -2.43683
LeftHand  -0.375386 -0.748053 7.17026
RightShoulder  -4.96962e-017 0 -2.36833e-017
RightArm  -27.1323 -24.7091 74.946
RightForeArm  56.665 13.9005 1.26372
RightHand  -0.342488 -1.08929 -9.21862
LeftUpLeg  -8.04771 2.96363 0.98245
LeftLeg  5.72773 13.4473 0.475183
LeftFoot  3.81624 -0.024191 1.03332
LeftToes  -18.1274 1.48347e-006 1.01831e-007
69
root  -12.0932 34.6097 -18.2555 -170.127 0.971695 179.78
RightUpLeg  -8.1609 -13.4448 0.0255439
RightLeg  6.25955 -1.69033 -0.0748359
RightFoot  2.13932 0.0121742 0.0791541
RightToes  -22.0558 -0.0817888 -0.187281
Spine  -3.10745 0.00363627 0.111179
Spine1  -6.29607 0.101062 0.783786
HEad  -65.3413 0.490691 6.07694
LeftShoulder1  -1.94126e-019 -3.10601e-018 -2.51263e-017
LeftArm  -13.1918 26.5349 -81.9215
LeftForeArm  32.0746 -15.2334 -2.44282
LeftHand  -0.374958 -0.772197 7.18389
RightShoulder  -4.96962e-017 0 -2.36833e-017
RightArm  -27.1407 -24.6884 74.6869
RightForeArm  56.6806 13.8778 1.26669
RightHand  -0.341146 -1.15211 -9.26363
LeftUpLeg  -8.03478 2.77539 0.991815
LeftLeg  5.70603 13.5266 0.472859
LeftFoot  3.877 -0.0254354 1.05267
LeftToes  -18.2364 1.48347e-006 1.01831e-007
70
root  -12.0865 34.6103 -18.265 -170.139 0.784698 179.769
RightUpLeg  -8.15868 -13.5925 0.0326073
RightLeg  6.36149 -1.72226 -0.0793338
RightFoot  2.05054 0.0121755 0.079136
RightToes  -22.0164 -0.0813764 -0.186843
Spine  -3.10089 0.00223919 0.123907
Spine1  -6.28241 0.0895218 0.808364
HEad  -65.1555 0.39346 6.06996
LeftShoulder1  -1.94126e-019 -3.10601e-018 -2.51263e-017
LeftArm  -13.0932 26.5102 -81.9268
LeftForeArm  32.0241 -15.2975 -2.45351
LeftHand  -0.375108 -0.796542 7.15867
RightShoulder  -4.96962e-017 0 -2.36833e-017
RightArm  -27.2117 -24.6234 74.4014
RightForeArm  57.0446 13.711 1.28545
RightHand  -0.347814 -1.11187 -9.36276
LeftUpLeg  -8.02031 2.54131 1.01968
LeftLeg  5.67326 13.5639 0.466452
LeftFoot  3.96874 -0.0269622 1.0764
LeftToes  -18.202 1.48347e-006 1.01831e-007
71
root  -12.0622 34.6151 -18.2638 -170.155 0.635605 179.812
RightUpLeg  -8.26036 -13.6961 0.124902
RightLeg  6.63317 -1.76061 -0.089479
RightFoot  1.93236 0.012079 0.0805149
RightToes  -21.9688 -0.0809862 -0.186421
Spine  -3.08784 0.00387339 0.175711
Spine1  -6.25814 0.103355 0.90829
HEad  -64.9154 0.431821 6.11193
LeftShoulder1  -1.94126e-019 -3.10601e-018 -2.51263e-017
LeftArm  -13.0611 26.4974 -81.9798
LeftForeArm  31.9238 -15.3272 -2.45383
LeftHand  -0.373171 -0.795629 7.2095
RightShoulder  -4.96962e-017 0 -2.36833e-017
RightArm  -26.8995 -23.9652 73.8488
RightForeArm  58.9541 13.129 1.3474
RightHand  -0.362931 -0.782242 -9.10901
LeftUpLeg  -8.02929 2.63574 1.13001
LeftLeg  5.63162 13.3089 0.448235
LeftFoot  4.24468 -0.0299066 1.12217
LeftToes  -18.4773 1.48347e-006 1.01831e-007
72
root  -12.0137 34.633 -18.2444 -170.217 0.735092 179.873
RightUpLeg  -8.44787 -13.5605 0.245182
RightLeg  7.05558 -1.77853 -0.103539
RightFoot  1.78717 0.0117129 0.0857464
RightToes  -21.8971 -0.08062 -0.186016
Spine  -3.07263 0.0435689 0.222349
Spine1  -6.23284 0.212081 0.991996
HEad  -64.3657 0.575058 6.21445
LeftShoulder1  -1.94126e-019 -3.10601e-018 -2.51263e-017
LeftArm  -13.0141 26.465 -81.9655
LeftForeArm  31.9819 -15.1092 -2.4243
LeftHand  -0.37459 -0.793744 7.07549
RightShoulder  -4.96962e-017 0 -2.36833e-017
RightArm  -27.8762 -22.5233 73.097
RightForeArm  58.434 12.361 1.44093
RightHand  -0.36643 -0.112807 -8.09348
LeftUpLeg  -7.91133 2.96645 1.2784
LeftLeg  5.4346 13.048 0.395089
LeftFoot  4.69238 -0.0353006 1.20601
LeftToes  -18.9591 1.48347e-006 1.01831e-007
73
root  -11.9226 34.6776 -18.1984 -170.241 1.18413 179.894
RightUpLeg  -8.23359 -12.438 0.363338
RightLeg  6.43207 -2.39852 -0.113826
RightFoot  2.12505 0.0134467 0.0609714
RightToes  -21.7272 -0.0802796 -0.18563
Spine  -3.08121 0.105689 0.195245
Spine1  -6.24818 0.370155 0.955565
HEad  -63.6237 1.00826 6.43009
LeftShoulder1  -1.94126e-019 -3.10601e-018 -2.51263e-017
LeftArm  -12.7873 26.4283 -81.7417
LeftForeArm  32.1472 -14.7622 -2.38287
LeftHand  -0.372519 -0.819159 7.0895
RightShoulder  -4.96962e-017 0 -2.36833e-017
RightArm  -29.3676 -20.1319 72.3479
RightForeArm  56.0768 11.79 1.50006
RightHand  -0.379628 -0.0682577 -8.31865
LeftUpLeg  -7.78209 3.27639 1.41658
LeftLeg  5.14897 13.1634 0.333474
LeftFoot  5.16644 -0.043612 1.33521
LeftToes  -19.1734 1.48347e-006 1.01831e-007
74
root  -11.7923 34.7614 -18.1271 -170.267 1.754 179.989
RightUpLeg  -7.88912 -11.7361 0.65069
RightLeg  5.42087 -2.54528 -0.0759354
RightFoot  2.65044 0.014586 0.0446917
RightToes  -21.142 -0.0799671 -0.185263
Spine  -3.06864 0.0733726 0.0981971
Spine1  -6.19784 0.293406 0.858947
HEad  -63.0375 1.70293 6.79045
LeftShoulder1  -1.94126e-019 -3.10601e-018 -2.51263e-017
LeftArm  -12.634 26.3122 -81.3062
LeftForeArm  32.4518 -14.3251 -2.32058
LeftHand  -0.374694 -1.02632 6.91579
RightShoulder  -4.96962e-017 0 -2.36833e-017
RightArm  -25.9787 -17.3993 71.5183
RightForeArm  51.4652 14.1916 1.30485
RightHand  -0.359202 -0.213862 -8.07894
LeftUpLeg  -7.79517 3.5473 1.67837
LeftLeg  5.11736 13.4392 0.333003
LeftFoot  5.56977 -0.0527036 1.47654
LeftToes  -19.6462 1.48347e-006 1.01831e-007
